<svg width="22" height="24" viewBox="0 0 22 24" fill="none" xmlns="http://www.w3.org/2000/svg">
<path d="M11.0002 0C4.93358 0 0 4.75741 0 10.6016C0 13.337 1.07402 15.9166 3.02099 17.8962C4.23724 21.4584 7.35633 24 11 24C14.6437 24 17.763 21.4583 18.979 17.8915C20.926 15.9167 22 13.3323 22 10.5968C22 4.75741 17.0664 0 10.9998 0H11.0002ZM2.48181 14.9102C2.1189 14.2488 1.84425 13.5449 1.6579 12.8126C2.01591 12.6756 2.369 12.5339 2.70739 12.3921C2.53084 13.2047 2.45237 14.041 2.4818 14.9102L2.48181 14.9102ZM12.045 1.38913C11.7948 3.02848 10.2942 7.96069 1.42228 11.4711C0.828884 4.96561 6.75312 0.761082 12.045 1.38913ZM11.0004 22.6675C7.06228 22.6675 3.8549 19.0391 3.8549 14.5793C3.8549 13.5636 4.02654 12.5809 4.34534 11.6503C7.55761 10.0676 9.64166 8.30068 10.9904 6.65657C12.0693 8.05028 14.5558 10.866 17.7583 11.9997C18.0084 12.8265 18.1409 13.691 18.1409 14.5792C18.1409 19.039 14.9384 22.6673 11.0003 22.6673L11.0004 22.6675ZM19.2883 12.3872C19.661 12.4439 20.0386 12.4817 20.4212 12.4817C20.2397 13.3321 19.9357 14.1447 19.5188 14.9101C19.5581 14.0975 19.4698 13.2565 19.2883 12.3873L19.2883 12.3872ZM20.6026 11.1447C16.4095 11.225 12.8146 6.81233 11.8439 5.50398C12.9032 3.88351 13.2857 2.47568 13.4132 1.62998C17.9006 2.79691 20.9021 6.76534 20.6026 11.1448V11.1447Z" fill="#1A162E"/>
</svg>
